<svg width="22" height="22" viewBox="0 0 22 22" fill="none" xmlns="http://www.w3.org/2000/svg">
<path d="M2.92969 5.93457C2.92969 4.27771 4.27283 2.93457 5.92969 2.93457H16.0672C17.7241 2.93457 19.0672 4.27772 19.0672 5.93457V16.0721C19.0672 17.729 17.7241 19.0721 16.0672 19.0721H5.92969C4.27283 19.0721 2.92969 17.729 2.92969 16.0721V5.93457Z" fill="white"/>
<circle cx="6.60315" cy="0.733524" r="0.733524" fill="white"/>
<circle cx="6.60315" cy="21.2723" r="0.733524" fill="white"/>
<circle cx="0.733761" cy="6.6012" r="0.733524" transform="rotate(90 0.733761 6.6012)" fill="white"/>
<circle cx="21.2687" cy="15.4044" r="0.733524" transform="rotate(-90 21.2687 15.4044)" fill="white"/>
<circle cx="11.006" cy="0.733524" r="0.733524" fill="white"/>
<circle cx="11.006" cy="21.2723" r="0.733524" fill="white"/>
<circle cx="0.733761" cy="11.0028" r="0.733524" transform="rotate(90 0.733761 11.0028)" fill="white"/>
<circle cx="21.2687" cy="11.0028" r="0.733524" transform="rotate(-90 21.2687 11.0028)" fill="white"/>
<circle cx="15.4083" cy="0.733524" r="0.733524" fill="white"/>
<circle cx="15.4083" cy="21.2723" r="0.733524" fill="white"/>
<circle cx="0.733761" cy="15.4037" r="0.733524" transform="rotate(90 0.733761 15.4037)" fill="white"/>
<circle cx="21.2687" cy="6.60192" r="0.733524" transform="rotate(-90 21.2687 6.60192)" fill="white"/>
<path d="M12.4985 12.2659H9.49848L8.98848 14.0059H8.08848L10.2085 7.00586H11.7885L13.9085 14.0059H13.0085L12.4985 12.2659ZM10.9385 7.36586L9.72848 11.4859H12.2685L11.0585 7.36586H10.9385ZM8.77848 15.0059H13.2185V15.7859H11.4185V21.2259H13.2185V22.0059H8.77848V21.2259H10.5785V15.7859H8.77848V15.0059Z" fill="black"/>
</svg>
