<svg width="24" height="24" viewBox="0 0 24 24" fill="none" xmlns="http://www.w3.org/2000/svg">
<circle cx="12" cy="12" r="9.5" fill="black" stroke="white"/>
<mask id="path-2-inside-1_40_275" fill="white">
<path fill-rule="evenodd" clip-rule="evenodd" d="M14 13L17 7L11 10L8 16L14 13ZM12.2874 12.5714C12.7608 12.5714 13.1445 12.1877 13.1445 11.7143C13.1445 11.2409 12.7608 10.8571 12.2874 10.8571C11.814 10.8571 11.4302 11.2409 11.4302 11.7143C11.4302 12.1877 11.814 12.5714 12.2874 12.5714Z"/>
</mask>
<path fill-rule="evenodd" clip-rule="evenodd" d="M14 13L17 7L11 10L8 16L14 13ZM12.2874 12.5714C12.7608 12.5714 13.1445 12.1877 13.1445 11.7143C13.1445 11.2409 12.7608 10.8571 12.2874 10.8571C11.814 10.8571 11.4302 11.2409 11.4302 11.7143C11.4302 12.1877 11.814 12.5714 12.2874 12.5714Z" fill="white"/>
<path d="M17 7L17.8944 7.44721L19.2361 4.76393L16.5528 6.10557L17 7ZM14 13L14.4472 13.8944L14.7454 13.7454L14.8944 13.4472L14 13ZM11 10L10.5528 9.10557L10.2546 9.25464L10.1056 9.55279L11 10ZM8 16L7.10557 15.5528L5.76393 18.2361L8.44721 16.8944L8 16ZM16.1056 6.55279L13.1056 12.5528L14.8944 13.4472L17.8944 7.44721L16.1056 6.55279ZM11.4472 10.8944L17.4472 7.89443L16.5528 6.10557L10.5528 9.10557L11.4472 10.8944ZM8.89443 16.4472L11.8944 10.4472L10.1056 9.55279L7.10557 15.5528L8.89443 16.4472ZM13.5528 12.1056L7.55279 15.1056L8.44721 16.8944L14.4472 13.8944L13.5528 12.1056ZM12.1445 11.7143C12.1445 11.6354 12.2085 11.5714 12.2874 11.5714V13.5714C13.3131 13.5714 14.1445 12.74 14.1445 11.7143H12.1445ZM12.2874 11.8571C12.2085 11.8571 12.1445 11.7932 12.1445 11.7143H14.1445C14.1445 10.6886 13.3131 9.85714 12.2874 9.85714V11.8571ZM12.4302 11.7143C12.4302 11.7932 12.3663 11.8571 12.2874 11.8571V9.85714C11.2617 9.85714 10.4302 10.6886 10.4302 11.7143H12.4302ZM12.2874 11.5714C12.3663 11.5714 12.4302 11.6354 12.4302 11.7143H10.4302C10.4302 12.74 11.2617 13.5714 12.2874 13.5714V11.5714Z" fill="white" mask="url(#path-2-inside-1_40_275)"/>
<path d="M12 23V21" stroke="white" stroke-width="0.5" stroke-linecap="round"/>
<path d="M12 3V1" stroke="white" stroke-width="0.5" stroke-linecap="round"/>
<path d="M21 12H23" stroke="white" stroke-width="0.5" stroke-linecap="round"/>
<path d="M1 12H3" stroke="white" stroke-width="0.5" stroke-linecap="round"/>
</svg>
