<svg width="27" height="27" viewBox="0 0 27 27" fill="none" xmlns="http://www.w3.org/2000/svg">
<g clip-path="url(#clip0_40_347)">
<path fill-rule="evenodd" clip-rule="evenodd" d="M13.5 0C6.04363 0 0 6.04363 0 13.5C0 20.9563 6.04363 27 13.5 27C20.9563 27 27 20.9563 27 13.5C27 6.04363 20.9563 0 13.5 0Z" fill="#BDC5D1"/>
<mask id="mask0_40_347" style="mask-type:luminance" maskUnits="userSpaceOnUse" x="4" y="4" width="20" height="20">
<path d="M23.0977 4.00781H4.00781V23.0977H23.0977V4.00781Z" fill="white"/>
</mask>
<g mask="url(#mask0_40_347)">
<path d="M21.4614 18.403C21.4641 17.9762 23.0962 17.9941 23.085 17.5944C23.077 17.2868 22.3546 17.2939 22.5817 16.6422C22.9157 15.6705 23.0977 14.6275 23.0977 13.5428C23.0977 8.27668 18.8242 4.00781 13.5527 4.00781C8.2813 4.00781 4.00781 8.27668 4.00781 13.5424C4.00781 14.6309 4.1909 15.6762 4.52762 16.651C4.52952 16.6556 4.54826 16.711 4.54826 16.711C4.68394 17.1431 4.00972 17.3127 4.00972 17.5708C4.00972 17.975 5.42964 17.9205 5.42964 18.3912C5.42964 18.801 4.02577 18.9273 4.02577 19.3408C4.02577 19.912 7.13506 19.7131 7.17442 20.2044C7.20499 20.5835 6.10538 20.6061 6.09927 21.0112C6.08856 21.6575 10.3429 21.446 10.3429 21.8763C10.3429 22.2016 8.40781 22.0844 8.40781 22.4689C8.40781 22.8533 10.9552 23.0972 13.7618 23.0972C16.5684 23.0972 18.5054 22.7854 18.5054 22.4482C18.5054 22.1111 16.6987 22.1809 16.7354 21.8763C16.8012 21.3456 20.8113 21.6171 20.8113 21.0032C20.8113 20.6794 19.7082 20.6042 19.7442 20.2552C19.7946 19.7619 23.0977 19.8356 23.0977 19.3236C23.0977 18.9212 21.4614 18.8223 21.4633 18.4046L21.4614 18.4027V18.403ZM18.9021 17.1649C18.815 17.4902 19.8202 17.5387 19.8202 17.8785C19.8202 18.292 16.7541 18.127 16.7847 18.6738C16.8034 19.0181 18.9633 19.0762 18.922 19.4359C18.8628 19.9566 15.5776 19.6966 15.5451 20.1953C15.5218 20.561 17.1482 20.5736 17.152 20.9073C17.1547 21.1879 15.8739 21.3414 13.4216 21.3414C10.6273 21.3414 9.26931 21.191 9.42373 20.8771C9.5682 20.5839 12.0419 20.6385 12.017 20.1777C11.9918 19.7169 7.62428 19.8531 7.49242 19.4065C7.38273 19.0353 8.92761 18.959 8.91768 18.6066C8.90774 18.2469 6.93936 18.3287 6.89617 17.8937C6.86827 17.6078 7.9247 17.6265 7.87883 17.2672C7.84558 17.0054 7.40948 17.0424 7.15072 16.5032C6.73335 15.6022 6.49906 14.5996 6.49906 13.5428C6.49906 9.6523 9.65573 6.49904 13.5504 6.49904C17.4452 6.49904 20.6018 9.6523 20.6018 13.5428C20.6018 14.5023 20.4096 15.4167 20.0614 16.2505C19.73 17 18.9843 16.8496 18.8999 17.1649H18.9018H18.9021Z" fill="white"/>
</g>
</g>
<defs>
<clipPath id="clip0_40_347">
<rect width="27" height="27" fill="white"/>
</clipPath>
</defs>
</svg>
