<svg width="46" height="18" viewBox="0 0 46 18" fill="none" xmlns="http://www.w3.org/2000/svg">
<g filter="url(#filter0_f_40_1332)">
<path d="M6.00195 8.62981C8.78962 8.44191 38.3802 4.19376 39.5451 8.99814C40.4771 12.8417 17.5713 10.3541 6.00195 8.62981Z" fill="url(#paint0_linear_40_1332)"/>
</g>
<g filter="url(#filter1_f_40_1332)">
<path d="M6.00195 8.62981C8.78962 8.44191 38.3802 4.19376 39.5451 8.99814C40.4771 12.8417 17.5713 10.3541 6.00195 8.62981Z" fill="url(#paint1_linear_40_1332)"/>
</g>
<g filter="url(#filter2_f_40_1332)">
<path d="M7.53633 8.73206C6.80175 8.7369 6.27298 8.70679 6.00204 8.62973C6.49338 8.66087 7.00573 8.69516 7.53633 8.73206C14.2508 8.68784 38.1607 5.72343 39.5452 8.99806C40.6948 11.7169 19.4872 9.56315 7.53633 8.73206Z" fill="url(#paint2_linear_40_1332)"/>
</g>
<defs>
<filter id="filter0_f_40_1332" x="0.00195312" y="0.717285" width="45.5708" height="16.3098" filterUnits="userSpaceOnUse" color-interpolation-filters="sRGB">
<feFlood flood-opacity="0" result="BackgroundImageFix"/>
<feBlend mode="normal" in="SourceGraphic" in2="BackgroundImageFix" result="shape"/>
<feGaussianBlur stdDeviation="3" result="effect1_foregroundBlur_40_1332"/>
</filter>
<filter id="filter1_f_40_1332" x="0.00195312" y="0.717285" width="45.5708" height="16.3098" filterUnits="userSpaceOnUse" color-interpolation-filters="sRGB">
<feFlood flood-opacity="0" result="BackgroundImageFix"/>
<feBlend mode="normal" in="SourceGraphic" in2="BackgroundImageFix" result="shape"/>
<feGaussianBlur stdDeviation="3" result="effect1_foregroundBlur_40_1332"/>
</filter>
<filter id="filter2_f_40_1332" x="5.00195" y="6.45972" width="35.5884" height="4.86938" filterUnits="userSpaceOnUse" color-interpolation-filters="sRGB">
<feFlood flood-opacity="0" result="BackgroundImageFix"/>
<feBlend mode="normal" in="SourceGraphic" in2="BackgroundImageFix" result="shape"/>
<feGaussianBlur stdDeviation="0.5" result="effect1_foregroundBlur_40_1332"/>
</filter>
<linearGradient id="paint0_linear_40_1332" x1="6.79801" y1="8.75986" x2="40.1315" y2="9.95035" gradientUnits="userSpaceOnUse">
<stop stop-color="#00FFAE" stop-opacity="0.2"/>
<stop offset="1" stop-color="#00FFAE"/>
</linearGradient>
<linearGradient id="paint1_linear_40_1332" x1="6.79801" y1="8.75986" x2="40.1315" y2="9.95035" gradientUnits="userSpaceOnUse">
<stop offset="0.27" stop-color="#00FFAE" stop-opacity="0"/>
<stop offset="0.78" stop-color="#00FFAE" stop-opacity="0.5"/>
<stop offset="1" stop-color="#00FFAE"/>
</linearGradient>
<linearGradient id="paint2_linear_40_1332" x1="6.79811" y1="8.75976" x2="40.1316" y2="9.95025" gradientUnits="userSpaceOnUse">
<stop stop-opacity="0"/>
<stop offset="0.51" stop-color="#00FFAE" stop-opacity="0.25"/>
<stop offset="1" stop-color="#00FFAE"/>
</linearGradient>
</defs>
</svg>
