<svg width="53" height="51" viewBox="0 0 53 51" fill="none" xmlns="http://www.w3.org/2000/svg">
<path fill-rule="evenodd" clip-rule="evenodd" d="M41.1417 36.698C42.5023 35.6988 43.6934 34.4807 44.6579 33.0508C49.8902 25.2936 46.4717 14.2429 37.0225 8.3683C34.5157 6.80986 31.8364 5.77226 29.1548 5.23364C38.3284 11.4955 41.6935 22.2867 36.6327 29.7897C36.2603 30.3417 35.8524 30.861 35.4123 31.3474C34.7044 31.9396 34.2158 32.7752 34.097 33.7423C33.8404 35.8325 35.4089 37.7451 37.6004 38.0142C38.9955 38.1855 40.3067 37.6495 41.1417 36.698Z" fill="url(#paint0_linear_40_308)"/>
<path fill-rule="evenodd" clip-rule="evenodd" d="M10.9616 15.0003C9.69306 16.1035 8.61209 17.412 7.77487 18.9137C3.23211 27.0624 7.58597 37.818 17.4995 42.9371C20.1293 44.2951 22.8862 45.12 25.6025 45.447C15.9303 39.92 11.6519 29.4191 16.0458 21.5375C16.3693 20.9572 16.7311 20.4067 17.1278 19.8868C17.7811 19.2406 18.1954 18.369 18.2305 17.3955C18.3063 15.2902 16.5801 13.5053 14.375 13.4088C12.9708 13.3473 11.7111 13.9852 10.9616 15.0003Z" fill="url(#paint1_linear_40_308)"/>
<g filter="url(#filter0_f_40_308)">
<path fill-rule="evenodd" clip-rule="evenodd" d="M41.1416 36.6981C42.5022 35.6989 43.6934 34.4807 44.6579 33.0508C49.8902 25.2936 46.4717 14.2429 37.0225 8.36831C34.5158 6.80986 31.8364 5.77226 29.1548 5.23364C38.3284 11.4955 41.6936 22.2867 36.6327 29.7897C36.2604 30.3416 35.8525 30.8609 35.4124 31.3472C34.7044 31.9394 34.2157 32.7751 34.097 33.7423C33.8403 35.8325 35.4088 37.7451 37.6003 38.0142C38.9954 38.1855 40.3066 37.6495 41.1416 36.6981Z" fill="#426BFF"/>
<path fill-rule="evenodd" clip-rule="evenodd" d="M10.9616 15.0002C9.69308 16.1035 8.61208 17.4119 7.77485 18.9137C3.23209 27.0624 7.58596 37.818 17.4995 42.9371C20.1293 44.2951 22.8862 45.12 25.6025 45.447C15.9303 39.92 11.6519 29.4191 16.0458 21.5375C16.3693 20.9572 16.7311 20.4067 17.1278 19.8868C17.7811 19.2406 18.1954 18.369 18.2305 17.3955C18.3063 15.2902 16.5801 13.5053 14.375 13.4088C12.9709 13.3473 11.7111 13.9852 10.9616 15.0002Z" fill="#426BFF"/>
</g>
<g filter="url(#filter1_f_40_308)">
<ellipse cx="37.9291" cy="33.7888" rx="3.8992" ry="3.71904" transform="rotate(7 37.9291 33.7888)" fill="#5F9AFF"/>
</g>
<g filter="url(#filter2_f_40_308)">
<ellipse cx="13.7904" cy="17.0859" rx="3.8992" ry="3.71904" transform="rotate(7 13.7904 17.0859)" fill="#5F9AFF"/>
</g>
<defs>
<filter id="filter0_f_40_308" x="0.975098" y="0.233643" width="51.1343" height="50.2134" filterUnits="userSpaceOnUse" color-interpolation-filters="sRGB">
<feFlood flood-opacity="0" result="BackgroundImageFix"/>
<feBlend mode="normal" in="SourceGraphic" in2="BackgroundImageFix" result="shape"/>
<feGaussianBlur stdDeviation="2.5" result="effect1_foregroundBlur_40_308"/>
</filter>
<filter id="filter1_f_40_308" x="31.0322" y="27.0667" width="13.7939" height="13.4443" filterUnits="userSpaceOnUse" color-interpolation-filters="sRGB">
<feFlood flood-opacity="0" result="BackgroundImageFix"/>
<feBlend mode="normal" in="SourceGraphic" in2="BackgroundImageFix" result="shape"/>
<feGaussianBlur stdDeviation="1.5" result="effect1_foregroundBlur_40_308"/>
</filter>
<filter id="filter2_f_40_308" x="6.89355" y="10.3638" width="13.7939" height="13.4443" filterUnits="userSpaceOnUse" color-interpolation-filters="sRGB">
<feFlood flood-opacity="0" result="BackgroundImageFix"/>
<feBlend mode="normal" in="SourceGraphic" in2="BackgroundImageFix" result="shape"/>
<feGaussianBlur stdDeviation="1.5" result="effect1_foregroundBlur_40_308"/>
</filter>
<linearGradient id="paint0_linear_40_308" x1="39.2466" y1="6.47276" x2="35.4068" y2="37.7448" gradientUnits="userSpaceOnUse">
<stop stop-color="#426BFF" stop-opacity="0"/>
<stop offset="1" stop-color="#426BFF"/>
</linearGradient>
<linearGradient id="paint1_linear_40_308" x1="16.5822" y1="13.5055" x2="15.2039" y2="44.9918" gradientUnits="userSpaceOnUse">
<stop stop-color="#426BFF"/>
<stop offset="1" stop-color="#426BFF" stop-opacity="0"/>
</linearGradient>
</defs>
</svg>
