<svg width="15" height="22" viewBox="0 0 15 22" fill="none" xmlns="http://www.w3.org/2000/svg">
<path fill-rule="evenodd" clip-rule="evenodd" d="M7.55808 6.11519C9.24675 6.11519 10.6157 4.74626 10.6157 3.0576C10.6157 1.36893 9.24675 0 7.55808 0C5.86942 0 4.50049 1.36893 4.50049 3.0576C4.50049 4.74626 5.86942 6.11519 7.55808 6.11519ZM7.59943 4.46302C8.38146 4.46302 9.01543 3.82905 9.01543 3.04702C9.01543 2.26499 8.38146 1.63102 7.59943 1.63102C6.81739 1.63102 6.18343 2.26499 6.18343 3.04702C6.18343 3.82905 6.81739 4.46302 7.59943 4.46302Z" fill="white"/>
<path d="M9.41886 16.5325L8.04129 12.8574L14.4738 3.0957L9.41886 16.5325ZM7.38142 13.7471L8.90305 17.8994L7.38142 22.0001L0.289062 3.0957L7.38142 13.7729V13.7471Z" fill="white"/>
</svg>
