<svg width="35" height="35" viewBox="0 0 35 35" fill="none" xmlns="http://www.w3.org/2000/svg">
<g clip-path="url(#clip0_40_1435)">
<path fill-rule="evenodd" clip-rule="evenodd" d="M17.5 0C7.83434 0 0 7.83434 0 17.5C0 27.1656 7.83434 35 17.5 35C27.1656 35 35 27.1656 35 17.5C35 7.83434 27.1656 0 17.5 0Z" fill="#BDC5D1"/>
<mask id="mask0_40_1435" style="mask-type:luminance" maskUnits="userSpaceOnUse" x="5" y="5" width="25" height="25">
<path d="M29.9414 5.19531H5.19531V29.9414H29.9414V5.19531Z" fill="white"/>
</mask>
<g mask="url(#mask0_40_1435)">
<path d="M27.8204 23.8558C27.8238 23.3025 29.9395 23.3257 29.925 22.8076C29.9146 22.4088 28.9782 22.418 29.2726 21.5733C29.7056 20.3137 29.9414 18.9615 29.9414 17.5555C29.9414 10.729 24.4017 5.19531 17.5684 5.19531C10.735 5.19531 5.19531 10.729 5.19531 17.555C5.19531 18.966 5.43264 20.3211 5.86913 21.5846C5.87161 21.5906 5.89589 21.6624 5.89589 21.6624C6.07178 22.2225 5.19779 22.4424 5.19779 22.7769C5.19779 23.301 7.03842 23.2303 7.03842 23.8405C7.03842 24.3716 5.2186 24.5354 5.2186 25.0714C5.2186 25.8118 9.24915 25.554 9.30017 26.1909C9.3398 26.6823 7.91438 26.7116 7.90646 27.2367C7.89258 28.0745 13.4075 27.8004 13.4075 28.3582C13.4075 28.7798 10.899 28.628 10.899 29.1263C10.899 29.6246 14.2012 29.9409 17.8393 29.9409C21.4776 29.9409 23.9885 29.5366 23.9885 29.0995C23.9885 28.6625 21.6464 28.753 21.694 28.3582C21.7793 27.6702 26.9776 28.0222 26.9776 27.2263C26.9776 26.8066 25.5477 26.7091 25.5943 26.2567C25.6596 25.6173 29.9414 25.7128 29.9414 25.0491C29.9414 24.5275 27.8204 24.3992 27.8228 23.8578L27.8204 23.8554V23.8558ZM24.5027 22.2508C24.3898 22.6725 25.6929 22.7354 25.6929 23.1759C25.6929 23.7118 21.7183 23.498 21.758 24.2067C21.7822 24.6531 24.582 24.7285 24.5286 25.1947C24.4517 25.8697 20.1932 25.5326 20.1511 26.179C20.1209 26.6532 22.2291 26.6695 22.234 27.102C22.2376 27.4658 20.5773 27.6648 17.3984 27.6648C13.7762 27.6648 12.0158 27.4698 12.2159 27.0629C12.4032 26.6829 15.6099 26.7537 15.5776 26.1562C15.5449 25.5589 9.88333 25.7355 9.71239 25.1565C9.5702 24.6754 11.5728 24.5764 11.56 24.1196C11.5471 23.6534 8.99547 23.7594 8.93948 23.1956C8.90332 22.8249 10.2728 22.8491 10.2133 22.3835C10.1702 22.044 9.60488 22.092 9.26945 21.3931C8.72841 20.2251 8.42471 18.9254 8.42471 17.5555C8.42471 12.5122 12.5167 8.42468 17.5654 8.42468C22.6141 8.42468 26.7061 12.5122 26.7061 17.5555C26.7061 18.7992 26.4569 19.9846 26.0055 21.0655C25.576 22.037 24.6092 21.8421 24.4999 22.2508H24.5023H24.5027Z" fill="white"/>
</g>
</g>
<defs>
<clipPath id="clip0_40_1435">
<rect width="35" height="35" fill="white"/>
</clipPath>
</defs>
</svg>
