<svg width="39" height="39" viewBox="0 0 39 39" fill="none" xmlns="http://www.w3.org/2000/svg">
<g filter="url(#filter0_d_3_272)">
<rect x="2.33594" y="2" width="34.148" height="34.148" rx="4" fill="#0E0E0E"/>
<rect x="2.58594" y="2.25" width="33.648" height="33.648" rx="3.75" stroke="#353535" stroke-width="0.5"/>
</g>
<path d="M11.4146 27.6113L11.4146 28.6785" stroke="#426BFF" stroke-width="0.4" stroke-linecap="round"/>
<path d="M11.9478 28.145H10.8806" stroke="#426BFF" stroke-width="0.4" stroke-linecap="round"/>
<path d="M12.478 25.4771L12.478 26.5442" stroke="#426BFF" stroke-width="0.4" stroke-linecap="round"/>
<path d="M13.0117 26.0107H11.9446" stroke="#426BFF" stroke-width="0.4" stroke-linecap="round"/>
<path d="M13.5425 23.3428L13.5425 24.4099" stroke="#426BFF" stroke-width="0.4" stroke-linecap="round"/>
<path d="M14.0757 23.8765H13.0086" stroke="#426BFF" stroke-width="0.4" stroke-linecap="round"/>
<path d="M14.6143 21.208L14.6143 22.2751" stroke="#426BFF" stroke-width="0.4" stroke-linecap="round"/>
<path d="M15.1475 21.7417H14.0803" stroke="#426BFF" stroke-width="0.4" stroke-linecap="round"/>
<path d="M17.8135 16.9399L17.8135 18.0071" stroke="#426BFF" stroke-width="0.4" stroke-linecap="round"/>
<path d="M18.3472 17.4731H17.28" stroke="#426BFF" stroke-width="0.4" stroke-linecap="round"/>
<path d="M19.9492 18.0068L19.9492 19.074" stroke="#426BFF" stroke-width="0.4" stroke-linecap="round"/>
<path d="M20.4824 18.5405H19.4153" stroke="#426BFF" stroke-width="0.4" stroke-linecap="round"/>
<path d="M21.0132 20.1411L21.0132 21.2082" stroke="#426BFF" stroke-width="0.4" stroke-linecap="round"/>
<path d="M21.5464 20.6748H20.4793" stroke="#426BFF" stroke-width="0.4" stroke-linecap="round"/>
<path d="M22.085 22.2754L22.085 23.3425" stroke="#426BFF" stroke-width="0.4" stroke-linecap="round"/>
<path d="M22.6182 22.8091H21.551" stroke="#426BFF" stroke-width="0.4" stroke-linecap="round"/>
<path d="M26.3486 24.4097L26.3486 25.4768" stroke="#426BFF" stroke-width="0.4" stroke-linecap="round"/>
<path d="M26.8818 24.9434H25.8147" stroke="#426BFF" stroke-width="0.4" stroke-linecap="round"/>
<path d="M27.4204 22.2754L27.4204 23.3425" stroke="#426BFF" stroke-width="0.4" stroke-linecap="round"/>
<path d="M27.9536 22.8091H26.8865" stroke="#426BFF" stroke-width="0.4" stroke-linecap="round"/>
<path d="M27.4204 20.1411L27.4204 21.2082" stroke="#426BFF" stroke-width="0.4" stroke-linecap="round"/>
<path d="M27.9536 20.6748H26.8865" stroke="#426BFF" stroke-width="0.4" stroke-linecap="round"/>
<path d="M28.4844 18.0068L28.4844 19.074" stroke="#426BFF" stroke-width="0.4" stroke-linecap="round"/>
<path d="M29.0176 18.5405H27.9505" stroke="#426BFF" stroke-width="0.4" stroke-linecap="round"/>
<path d="M8.38684 28.4965C8.28646 28.6933 8.36462 28.9342 8.56141 29.0345C8.7582 29.1349 8.99911 29.0568 9.09949 28.86L8.38684 28.4965ZM30.0856 10.5371L26.4287 13.3585L30.7005 15.1148L30.0856 10.5371ZM17.204 18.6464L16.8712 18.8682L17.204 18.6464ZM9.09949 28.86L14.1144 19.0284L13.4017 18.6649L8.38684 28.4965L9.09949 28.86ZM16.8712 18.8682L20.6908 24.601L21.3566 24.1574L17.5369 18.4246L16.8712 18.8682ZM24.9078 24.1828L29.0867 14.0188L28.3468 13.7146L24.1679 23.8786L24.9078 24.1828ZM20.6908 24.601C21.7567 26.2007 24.1769 25.9607 24.9078 24.1828L24.1679 23.8786C23.6806 25.0639 22.0672 25.2239 21.3566 24.1574L20.6908 24.601ZM14.1144 19.0284C14.6701 17.9389 16.193 17.8504 16.8712 18.8682L17.5369 18.4246C16.5197 16.898 14.2353 17.0307 13.4017 18.6649L14.1144 19.0284Z" fill="#426BFF"/>
<g filter="url(#filter1_f_3_272)">
<path d="M11.4146 27.6113L11.4146 28.6785" stroke="#426BFF" stroke-width="0.4" stroke-linecap="round"/>
<path d="M11.9478 28.145H10.8806" stroke="#426BFF" stroke-width="0.4" stroke-linecap="round"/>
<path d="M12.478 25.4771L12.478 26.5442" stroke="#426BFF" stroke-width="0.4" stroke-linecap="round"/>
<path d="M13.0117 26.0107H11.9446" stroke="#426BFF" stroke-width="0.4" stroke-linecap="round"/>
<path d="M13.5425 23.3428L13.5425 24.4099" stroke="#426BFF" stroke-width="0.4" stroke-linecap="round"/>
<path d="M14.0757 23.8765H13.0086" stroke="#426BFF" stroke-width="0.4" stroke-linecap="round"/>
<path d="M14.6143 21.208L14.6143 22.2751" stroke="#426BFF" stroke-width="0.4" stroke-linecap="round"/>
<path d="M15.1475 21.7417H14.0803" stroke="#426BFF" stroke-width="0.4" stroke-linecap="round"/>
<path d="M17.8135 16.9399L17.8135 18.0071" stroke="#426BFF" stroke-width="0.4" stroke-linecap="round"/>
<path d="M18.3472 17.4731H17.28" stroke="#426BFF" stroke-width="0.4" stroke-linecap="round"/>
<path d="M19.9492 18.0068L19.9492 19.074" stroke="#426BFF" stroke-width="0.4" stroke-linecap="round"/>
<path d="M20.4824 18.5405H19.4153" stroke="#426BFF" stroke-width="0.4" stroke-linecap="round"/>
<path d="M21.0132 20.1411L21.0132 21.2082" stroke="#426BFF" stroke-width="0.4" stroke-linecap="round"/>
<path d="M21.5464 20.6748H20.4793" stroke="#426BFF" stroke-width="0.4" stroke-linecap="round"/>
<path d="M22.085 22.2754L22.085 23.3425" stroke="#426BFF" stroke-width="0.4" stroke-linecap="round"/>
<path d="M22.6182 22.8091H21.551" stroke="#426BFF" stroke-width="0.4" stroke-linecap="round"/>
<path d="M26.3486 24.4097L26.3486 25.4768" stroke="#426BFF" stroke-width="0.4" stroke-linecap="round"/>
<path d="M26.8818 24.9434H25.8147" stroke="#426BFF" stroke-width="0.4" stroke-linecap="round"/>
<path d="M27.4204 22.2754L27.4204 23.3425" stroke="#426BFF" stroke-width="0.4" stroke-linecap="round"/>
<path d="M27.9536 22.8091H26.8865" stroke="#426BFF" stroke-width="0.4" stroke-linecap="round"/>
<path d="M27.4204 20.1411L27.4204 21.2082" stroke="#426BFF" stroke-width="0.4" stroke-linecap="round"/>
<path d="M27.9536 20.6748H26.8865" stroke="#426BFF" stroke-width="0.4" stroke-linecap="round"/>
<path d="M28.4844 18.0068L28.4844 19.074" stroke="#426BFF" stroke-width="0.4" stroke-linecap="round"/>
<path d="M29.0176 18.5405H27.9505" stroke="#426BFF" stroke-width="0.4" stroke-linecap="round"/>
<path d="M8.38684 28.4965C8.28646 28.6933 8.36462 28.9342 8.56141 29.0345C8.7582 29.1349 8.99911 29.0568 9.09949 28.86L8.38684 28.4965ZM30.0856 10.5371L26.4287 13.3585L30.7005 15.1148L30.0856 10.5371ZM17.204 18.6464L16.8712 18.8682L17.204 18.6464ZM9.09949 28.86L14.1144 19.0284L13.4017 18.6649L8.38684 28.4965L9.09949 28.86ZM16.8712 18.8682L20.6908 24.601L21.3566 24.1574L17.5369 18.4246L16.8712 18.8682ZM24.9078 24.1828L29.0867 14.0188L28.3468 13.7146L24.1679 23.8786L24.9078 24.1828ZM20.6908 24.601C21.7567 26.2007 24.1769 25.9607 24.9078 24.1828L24.1679 23.8786C23.6806 25.0639 22.0672 25.2239 21.3566 24.1574L20.6908 24.601ZM14.1144 19.0284C14.6701 17.9389 16.193 17.8504 16.8712 18.8682L17.5369 18.4246C16.5197 16.898 14.2353 17.0307 13.4017 18.6649L14.1144 19.0284Z" fill="#426BFF"/>
</g>
<defs>
<filter id="filter0_d_3_272" x="0.335938" y="0" width="38.1479" height="38.1479" filterUnits="userSpaceOnUse" color-interpolation-filters="sRGB">
<feFlood flood-opacity="0" result="BackgroundImageFix"/>
<feColorMatrix in="SourceAlpha" type="matrix" values="0 0 0 0 0 0 0 0 0 0 0 0 0 0 0 0 0 0 127 0" result="hardAlpha"/>
<feOffset/>
<feGaussianBlur stdDeviation="1"/>
<feComposite in2="hardAlpha" operator="out"/>
<feColorMatrix type="matrix" values="0 0 0 0 0 0 0 0 0 0 0 0 0 0 0 0 0 0 0.25 0"/>
<feBlend mode="normal" in2="BackgroundImageFix" result="effect1_dropShadow_3_272"/>
<feBlend mode="normal" in="SourceGraphic" in2="effect1_dropShadow_3_272" result="shape"/>
</filter>
<filter id="filter1_f_3_272" x="4.34326" y="6.53711" width="30.3574" height="26.541" filterUnits="userSpaceOnUse" color-interpolation-filters="sRGB">
<feFlood flood-opacity="0" result="BackgroundImageFix"/>
<feBlend mode="normal" in="SourceGraphic" in2="BackgroundImageFix" result="shape"/>
<feGaussianBlur stdDeviation="2" result="effect1_foregroundBlur_3_272"/>
</filter>
</defs>
</svg>
