<svg width="48" height="25" viewBox="0 0 48 25" fill="none" xmlns="http://www.w3.org/2000/svg">
<path fill-rule="evenodd" clip-rule="evenodd" d="M8.23041 6.91688C10.1405 6.91688 11.6889 5.36848 11.6889 3.45844C11.6889 1.5484 10.1405 0 8.23041 0C6.32037 0 4.77197 1.5484 4.77197 3.45844C4.77197 5.36848 6.32037 6.91688 8.23041 6.91688ZM8.27372 5.0493C9.15828 5.0493 9.87535 4.33222 9.87535 3.44767C9.87535 2.56311 9.15828 1.84603 8.27372 1.84603C7.38916 1.84603 6.67209 2.56311 6.67209 3.44767C6.67209 4.33222 7.38916 5.0493 8.27372 5.0493Z" fill="white"/>
<path d="M10.3267 18.6989L8.76852 14.542L16.0443 3.50061L10.3267 18.6989ZM8.02215 15.5484L9.74326 20.245L8.02215 24.8833L0 3.50061L8.02215 15.5776V15.5484Z" fill="white"/>
<path d="M13.7696 24.8833V17.0362H16.045V24.8833H13.7696Z" fill="white"/>
<path d="M21.8177 25C20.4904 25 19.907 24.7228 19.1777 24.2415V22.5204C19.8778 22.9725 20.9426 23.2788 21.9053 23.2788C22.9554 23.2788 23.3492 23.0017 23.3492 22.5641C23.3492 21.2806 18.6089 22.5933 18.6089 19.4574C18.6089 17.9696 19.9508 16.9195 22.2407 16.9195C23.3201 16.9195 23.7576 16.9632 24.5015 17.4008V19.224C23.7285 18.7864 22.9554 18.6406 22.2407 18.6406C21.2197 18.6406 20.7822 18.9615 20.7822 19.3699C20.7822 20.7118 25.5225 19.4136 25.5225 22.5058C25.5225 23.9644 24.166 25 21.8177 25Z" fill="white"/>
<path d="M32.396 22.8996V24.6499C32.0036 24.8833 31.7264 25 31.1563 25C29.3039 25 28.2245 24.0519 28.2245 22.1849V18.9615H27.0139V17.2112H28.2245L30.4999 15.3005V17.2112H32.4544V18.9615H30.4999V22.1557C30.4999 22.8267 30.8645 23.1913 31.4771 23.1913C31.8126 23.1913 32.1481 23.0892 32.396 22.8996Z" fill="white"/>
<path d="M35.3069 24.8833V17.0362H37.5823V24.8833H35.3069Z" fill="white"/>
<path d="M43.8801 16.9195C46.2722 16.9195 47.6578 18.028 47.6578 20.4055V24.8833H45.5283V23.906C45.1053 24.6207 44.2885 25 43.1363 25C41.2985 25 40.2045 23.979 40.2045 22.6225C40.2045 21.2368 41.1818 20.2742 43.5738 20.2742H45.3825C45.3825 19.2969 44.799 18.7281 43.5738 18.7281C42.7424 18.7281 41.8819 19.0052 41.313 19.4574V17.5904C41.9802 17.0945 42.9575 16.9195 43.8801 16.9195ZM43.7051 23.4685C44.4636 23.4685 45.1199 23.1184 45.3825 22.4037V21.6015H43.8218C42.757 21.6015 42.4216 21.9953 42.4216 22.5204C42.4216 23.0892 42.9029 23.4685 43.7051 23.4685Z" fill="white"/>
</svg>
