<svg width="40" height="40" viewBox="0 0 40 40" fill="none" xmlns="http://www.w3.org/2000/svg">
<circle cx="20" cy="20" r="19.5" fill="#0E0E0E" stroke="#353535"/>
<path fill-rule="evenodd" clip-rule="evenodd" d="M20.6518 13.1113C22.8917 13.1113 24.7075 11.2955 24.7075 9.05564C24.7075 6.81577 22.8917 5 20.6518 5C18.412 5 16.5962 6.81577 16.5962 9.05564C16.5962 11.2955 18.412 13.1113 20.6518 13.1113ZM20.7025 10.9212C21.7398 10.9212 22.5807 10.0803 22.5807 9.043C22.5807 8.0057 21.7398 7.1648 20.7025 7.1648C19.6652 7.1648 18.8243 8.0057 18.8243 9.043C18.8243 10.0803 19.6652 10.9212 20.7025 10.9212Z" fill="white"/>
<path d="M23.1099 26.9277L21.2827 22.053L29.8148 9.10498L23.1099 26.9277ZM20.4074 23.2332L22.4257 28.7408L20.4074 34.18L11 9.10498L20.4074 23.2674V23.2332Z" fill="white"/>
</svg>
