<svg width="32" height="32" viewBox="0 0 32 32" fill="none" xmlns="http://www.w3.org/2000/svg">
<rect x="0.25" y="0.25" width="31.5" height="31.5" rx="3.75" fill="#0E0E0E" stroke="#353535" stroke-width="0.5"/>
<path d="M16 25C20.9706 25 25 20.9706 25 16C25 11.0294 20.9706 7 16 7C11.0294 7 7 11.0294 7 16C7 20.9706 11.0294 25 16 25Z" stroke="#426BFF" stroke-linecap="round" stroke-linejoin="round"/>
<path d="M15.9977 21.3996C18.98 21.3996 21.3977 18.9819 21.3977 15.9996C21.3977 13.0173 18.98 10.5996 15.9977 10.5996C13.0153 10.5996 10.5977 13.0173 10.5977 15.9996C10.5977 18.9819 13.0153 21.3996 15.9977 21.3996Z" stroke="#426BFF" stroke-linecap="round" stroke-linejoin="round"/>
<path d="M15.9953 17.7997C16.9894 17.7997 17.7953 16.9938 17.7953 15.9997C17.7953 15.0056 16.9894 14.1997 15.9953 14.1997C15.0012 14.1997 14.1953 15.0056 14.1953 15.9997C14.1953 16.9938 15.0012 17.7997 15.9953 17.7997Z" stroke="#426BFF" stroke-linecap="round" stroke-linejoin="round"/>
<g filter="url(#filter0_d_3_361)">
<path d="M14.6667 15.9997C14.6667 16.7361 15.2636 17.333 16 17.333C16.7364 17.333 17.3333 16.7361 17.3333 15.9997C17.3333 15.2633 16.7364 14.6664 16 14.6664C15.2636 14.6664 14.6667 15.2633 14.6667 15.9997ZM16.1768 16.1765L22.4768 9.87648L22.1232 9.52293L15.8232 15.8229L16.1768 16.1765Z" fill="#426BFF"/>
</g>
<g filter="url(#filter1_f_3_361)">
<path d="M16 25C20.9706 25 25 20.9706 25 16C25 11.0294 20.9706 7 16 7C11.0294 7 7 11.0294 7 16C7 20.9706 11.0294 25 16 25Z" stroke="#426BFF" stroke-linecap="round" stroke-linejoin="round"/>
<path d="M15.9977 21.3996C18.98 21.3996 21.3977 18.9819 21.3977 15.9996C21.3977 13.0173 18.98 10.5996 15.9977 10.5996C13.0153 10.5996 10.5977 13.0173 10.5977 15.9996C10.5977 18.9819 13.0153 21.3996 15.9977 21.3996Z" stroke="#426BFF" stroke-linecap="round" stroke-linejoin="round"/>
<path d="M15.9953 17.7997C16.9894 17.7997 17.7953 16.9938 17.7953 15.9997C17.7953 15.0056 16.9894 14.1997 15.9953 14.1997C15.0012 14.1997 14.1953 15.0056 14.1953 15.9997C14.1953 16.9938 15.0012 17.7997 15.9953 17.7997Z" stroke="#426BFF" stroke-linecap="round" stroke-linejoin="round"/>
<g filter="url(#filter2_d_3_361)">
<path d="M14.6667 15.9997C14.6667 16.7361 15.2636 17.333 16 17.333C16.7364 17.333 17.3333 16.7361 17.3333 15.9997C17.3333 15.2633 16.7364 14.6664 16 14.6664C15.2636 14.6664 14.6667 15.2633 14.6667 15.9997ZM16.1768 16.1765L22.4768 9.87648L22.1232 9.52293L15.8232 15.8229L16.1768 16.1765Z" fill="#426BFF"/>
</g>
</g>
<defs>
<filter id="filter0_d_3_361" x="11.6665" y="4.52295" width="13.8101" height="13.8101" filterUnits="userSpaceOnUse" color-interpolation-filters="sRGB">
<feFlood flood-opacity="0" result="BackgroundImageFix"/>
<feColorMatrix in="SourceAlpha" type="matrix" values="0 0 0 0 0 0 0 0 0 0 0 0 0 0 0 0 0 0 127 0" result="hardAlpha"/>
<feOffset dy="-2"/>
<feGaussianBlur stdDeviation="1.5"/>
<feComposite in2="hardAlpha" operator="out"/>
<feColorMatrix type="matrix" values="0 0 0 0 0 0 0 0 0 0.283333 0 0 0 0 1 0 0 0 1 0"/>
<feBlend mode="normal" in2="BackgroundImageFix" result="effect1_dropShadow_3_361"/>
<feBlend mode="normal" in="SourceGraphic" in2="effect1_dropShadow_3_361" result="shape"/>
</filter>
<filter id="filter1_f_3_361" x="2.5" y="2.5" width="27" height="27" filterUnits="userSpaceOnUse" color-interpolation-filters="sRGB">
<feFlood flood-opacity="0" result="BackgroundImageFix"/>
<feBlend mode="normal" in="SourceGraphic" in2="BackgroundImageFix" result="shape"/>
<feGaussianBlur stdDeviation="2" result="effect1_foregroundBlur_3_361"/>
</filter>
<filter id="filter2_d_3_361" x="11.6665" y="4.52295" width="13.8101" height="13.8101" filterUnits="userSpaceOnUse" color-interpolation-filters="sRGB">
<feFlood flood-opacity="0" result="BackgroundImageFix"/>
<feColorMatrix in="SourceAlpha" type="matrix" values="0 0 0 0 0 0 0 0 0 0 0 0 0 0 0 0 0 0 127 0" result="hardAlpha"/>
<feOffset dy="-2"/>
<feGaussianBlur stdDeviation="1.5"/>
<feComposite in2="hardAlpha" operator="out"/>
<feColorMatrix type="matrix" values="0 0 0 0 0 0 0 0 0 0.283333 0 0 0 0 1 0 0 0 1 0"/>
<feBlend mode="normal" in2="BackgroundImageFix" result="effect1_dropShadow_3_361"/>
<feBlend mode="normal" in="SourceGraphic" in2="effect1_dropShadow_3_361" result="shape"/>
</filter>
</defs>
</svg>
